<?xml version="1.0" encoding="UTF-8" standalone="no"?><!DOCTYPE svg PUBLIC "-//W3C//DTD SVG 1.1//EN" "http://www.w3.org/Graphics/SVG/1.1/DTD/svg11.dtd"><svg width="100%" height="100%" viewBox="0 0 885 309" version="1.1" xmlns="http://www.w3.org/2000/svg" xmlns:xlink="http://www.w3.org/1999/xlink" xml:space="preserve" xmlns:serif="http://www.serif.com/" style="fill-rule:evenodd;clip-rule:evenodd;stroke-linejoin:round;stroke-miterlimit:2;"><g><g><path d="M858.64,138.851c-0,-4.679 -1.138,-9.339 -3.289,-13.478c-1.582,-3.041 -3.72,-5.818 -6.261,-8.158c-0.559,-4.954 -3.229,-9.4 -7.238,-12.269c-0.041,-6.47 -2.619,-12.543 -7.274,-17.111c-4.656,-4.576 -10.843,-7.096 -17.412,-7.096c-3.862,-0 -7.577,0.858 -10.944,2.511c-2.729,-1.617 -5.875,-2.497 -9.118,-2.497c-4.541,-0 -8.812,1.715 -12.027,4.644c-2.105,-0.853 -4.383,-1.301 -6.733,-1.301c-0.296,0 -0.594,0.007 -0.89,0.023c-3.791,-2.22 -8.082,-3.381 -12.554,-3.381c-10.178,0 -19.161,6.167 -22.877,15.19c-7.635,1.958 -13.29,8.827 -13.29,16.978c-0,1.045 0.094,2.084 0.28,3.102c-2.413,1.966 -4.259,4.53 -5.344,7.431c-8.646,1.166 -15.329,8.513 -15.329,17.375c0,4.566 1.789,8.846 4.842,12.038c-1.321,3.028 -2.021,6.312 -2.021,9.642c0,5.577 1.963,11.036 5.525,15.356c2.768,3.362 6.412,5.936 10.485,7.449c1.204,2.211 2.883,4.165 4.915,5.688c3.103,2.33 6.809,3.559 10.712,3.559c2.209,0 4.353,-0.394 6.365,-1.156c2.646,1.496 5.65,2.294 8.788,2.294c3.071,-0 6.025,-0.78 8.618,-2.207c0.074,0.06 0.147,0.115 0.221,0.17c0.339,0.257 0.688,0.496 1.043,0.716l0,11.045l-6.261,-0c-1.729,-0 -3.133,1.403 -3.133,3.137c0,1.725 1.404,3.128 3.133,3.128l43.834,0c1.733,0 3.137,-1.403 3.137,-3.128c0,-1.733 -1.403,-3.137 -3.137,-3.137l-6.257,-0l0,-7.899c1.716,-0.614 3.339,-1.486 4.835,-2.605c0.986,-0.743 1.89,-1.582 2.701,-2.504c3.289,1.403 6.857,2.147 10.481,2.147c11.999,-0 22.315,-7.986 25.392,-19.1c2.097,-1.156 3.963,-2.729 5.436,-4.614c2.417,-3.096 3.697,-6.798 3.697,-10.715c-0,-0.734 -0.042,-1.459 -0.133,-2.174c1.793,-2.087 3.275,-4.403 4.431,-6.926c1.761,-3.837 2.651,-7.931 2.651,-12.167Zm-84.544,66.556l0,-8.87c0.533,0.055 1.071,0.087 1.615,0.087c1.603,-0 3.169,-0.257 4.649,-0.743l-0,9.526l-6.264,0Zm12.522,0l0,-7.967c2,0.734 4.119,1.119 6.266,1.129l-0,6.838l-6.266,0Z" style="fill:#6d6d6d;fill-rule:nonzero;"/></g><g><path d="M779.919,85.851c-0,-3.876 -0.942,-7.736 -2.724,-11.165c-1.312,-2.52 -3.082,-4.82 -5.187,-6.758c-0.464,-4.104 -2.675,-7.788 -5.996,-10.165c-0.034,-5.359 -2.17,-10.39 -6.027,-14.175c-3.856,-3.79 -8.982,-5.878 -14.424,-5.878c-3.199,-0 -6.277,0.71 -9.066,2.08c-2.261,-1.339 -4.868,-2.069 -7.554,-2.069c-3.762,0 -7.299,1.421 -9.963,3.847c-1.744,-0.706 -3.631,-1.077 -5.578,-1.077c-0.245,0 -0.492,0.006 -0.737,0.019c-3.141,-1.839 -6.696,-2.8 -10.401,-2.8c-8.431,-0 -15.873,5.108 -18.951,12.582c-6.325,1.623 -11.01,7.313 -11.01,14.065c0,0.867 0.078,1.728 0.232,2.571c-1.999,1.628 -3.528,3.752 -4.427,6.156c-7.162,0.965 -12.698,7.052 -12.698,14.394c-0,3.782 1.482,7.328 4.01,9.972c-1.094,2.508 -1.674,5.229 -1.674,7.987c0,4.621 1.627,9.143 4.577,12.722c2.293,2.785 5.312,4.917 8.686,6.171c0.998,1.831 2.389,3.45 4.072,4.712c2.57,1.93 5.641,2.948 8.874,2.948c1.83,0 3.606,-0.326 5.273,-0.957c2.192,1.239 4.681,1.9 7.28,1.9c2.544,-0 4.991,-0.646 7.14,-1.828c0.061,0.049 0.121,0.095 0.182,0.141c0.281,0.212 0.57,0.41 0.865,0.592l-0,9.15l-5.187,0c-1.433,0 -2.595,1.163 -2.595,2.6c-0,1.428 1.162,2.591 2.595,2.591l36.313,-0c1.436,-0 2.599,-1.163 2.599,-2.591c-0,-1.437 -1.163,-2.6 -2.599,-2.6l-5.183,0l-0,-6.543c1.421,-0.509 2.766,-1.231 4.005,-2.158c0.816,-0.616 1.565,-1.311 2.238,-2.075c2.724,1.163 5.68,1.779 8.682,1.779c9.94,-0 18.486,-6.616 21.036,-15.823c1.736,-0.957 3.283,-2.261 4.503,-3.822c2.002,-2.565 3.062,-5.632 3.062,-8.877c0,-0.608 -0.034,-1.208 -0.11,-1.801c1.486,-1.729 2.713,-3.648 3.671,-5.737c1.459,-3.179 2.196,-6.571 2.196,-10.08Zm-70.038,55.137l0,-7.349c0.441,0.046 0.887,0.072 1.338,0.072c1.328,0 2.625,-0.212 3.851,-0.615l-0,7.892l-5.189,0Zm10.374,0l-0,-6.6c1.656,0.608 3.412,0.927 5.19,0.935l0,5.665l-5.19,0Z" style="fill:#005b4c;fill-rule:nonzero;"/></g><path d="M638.472,2.25l11.899,-2.25l28.464,1.274l-11.784,2.563l-28.579,-1.587Z" style="fill:#002e42;"/><path d="M667.051,23.334l35.989,-5.471l0,93.849l-35.989,-7.215l0,-81.163Z" style="fill:#fff;"/><path d="M858.64,143.56l-20.112,40.223l-3.3,79.029l35.989,-7.409l7.534,-58.918l5.293,-5.293l-25.404,-47.632Z" style="fill:#fff;"/><path d="M552.098,34.534l62.028,0l-0,12.213l-60.418,3.873l-1.61,-16.086Z" style="fill:#003c32;"/><path d="M429.947,45.119l122.151,-10.585l1.61,16.086l-123.761,-5.501Z" style="fill:#003c32;"/><path d="M614.126,20.244l-0,27.121l25.404,-1.375l27.521,31.257l0,-53.913l-52.925,-3.09Z" style="fill:#6d6d6d;"/><path d="M546.382,50.295l-116.435,-5.176l-21.17,45.516l137.605,6.351l-0,-46.691Z" style="fill:#005b4c;"/><path d="M639.53,45.119l35.963,41.983l-129.111,9.884l-0,-46.691l93.148,-5.176Z" style="fill:#1a6b5e;"/><path d="M546.382,96.986l-128.1,-5.913l0,35.551l128.1,-0l-0,-29.638Z" style="fill:#6d6d6d;"/><path d="M638.472,18.553l-0,-16.303l28.579,1.448l0,16.419l-28.579,-1.564Z" style="fill:#6d6d6d;"/><path d="M678.835,1.274l0,17.258l-11.784,1.585l0,-16.46l11.784,-2.383Z" style="fill:#fff;"/><path d="M838.528,188.017l-169.36,-44.457l9.527,69.427l159.833,-24.97Z" style="fill:#002e42;"/><path d="M345.267,221.889l-0,81.549l333.428,-9.526l-0,-80.925l-333.428,8.902Z" style="fill:#9f9f9f;"/><path d="M546.382,96.986l-0,26.462l120.669,-2.117l0,-33.582l-120.669,9.237Z" style="fill:#c3c3c3;"/><path d="M667.051,104.395l0,39.165l171.477,44.457l20.112,-44.457l-191.589,-39.165Z" style="fill:#003c32;"/><rect x="103.928" y="214.479" width="241.338" height="88.038" style="fill:#fff;"/><path d="M678.695,293.912l-0,-80.925l159.833,-24.97l0,74.14l-159.833,31.755Z" style="fill:#c3c3c3;"/><path d="M350.559,126.624l316.492,-5.293l11.644,91.656l-333.428,8.902l5.292,-95.265Z" style="fill:#1a6b5e;"/><path d="M133.566,126.624l-39.164,95.265l250.865,-0l5.292,-95.265l-216.993,-0Z" style="fill:#005b4c;"/><path d="M0,237.618c0,-4.023 0.977,-8.029 2.826,-11.588c1.36,-2.614 3.196,-5.002 5.379,-7.013c0.481,-4.259 2.775,-8.082 6.219,-10.549c0.036,-5.562 2.251,-10.784 6.251,-14.711c4,-3.934 9.317,-6.101 14.961,-6.101c3.318,0 6.511,0.738 9.403,2.159c2.345,-1.39 5.049,-2.147 7.835,-2.147c3.902,0 7.571,1.475 10.334,3.993c1.809,-0.734 3.766,-1.118 5.786,-1.118c0.254,-0 0.51,0.005 0.764,0.019c3.258,-1.908 6.945,-2.906 10.787,-2.906c8.746,-0 16.464,5.302 19.657,13.059c6.56,1.684 11.419,7.589 11.419,14.596c0,0.9 -0.08,1.793 -0.24,2.668c2.073,1.69 3.659,3.894 4.591,6.389c7.429,1.002 13.171,7.319 13.171,14.938c0,3.926 -1.537,7.605 -4.159,10.35c1.135,2.602 1.736,5.426 1.736,8.289c-0,4.795 -1.687,9.488 -4.747,13.203c-2.379,2.89 -5.51,5.103 -9.01,6.404c-1.035,1.9 -2.477,3.581 -4.223,4.89c-2.666,2.003 -5.85,3.06 -9.204,3.06c-1.898,-0 -3.74,-0.339 -5.469,-0.994c-2.274,1.286 -4.855,1.972 -7.551,1.972c-2.639,-0 -5.177,-0.671 -7.405,-1.897c-0.063,0.051 -0.126,0.099 -0.189,0.146c-0.292,0.221 -0.592,0.426 -0.897,0.615l-0,9.496l5.379,-0c1.486,-0 2.692,1.207 2.692,2.697c0,1.483 -1.206,2.69 -2.692,2.69l-37.663,-0c-1.49,-0 -2.696,-1.207 -2.696,-2.69c0,-1.49 1.206,-2.697 2.696,-2.697l5.376,-0l-0,-6.791c-1.474,-0.528 -2.869,-1.277 -4.154,-2.24c-0.847,-0.638 -1.624,-1.36 -2.322,-2.153c-2.825,1.207 -5.891,1.846 -9.005,1.846c-10.31,0 -19.174,-6.865 -21.818,-16.421c-1.801,-0.994 -3.405,-2.346 -4.671,-3.967c-2.076,-2.662 -3.176,-5.844 -3.176,-9.212c-0,-0.631 0.035,-1.254 0.114,-1.869c-1.541,-1.794 -2.814,-3.786 -3.807,-5.955c-1.513,-3.299 -2.278,-6.818 -2.278,-10.46Zm72.643,57.222l0,-7.627c-0.457,0.047 -0.92,0.075 -1.387,0.075c-1.378,-0 -2.723,-0.221 -3.994,-0.639l-0,8.191l5.381,-0Zm-10.759,-0l-0,-6.85c-1.719,0.631 -3.539,0.962 -5.384,0.97l0,5.88l5.384,-0Z" style="fill:#9f9f9f;fill-rule:nonzero;"/><g><path d="M82.17,284.295c-0,-1.543 0.408,-3.081 1.18,-4.447c0.568,-1.003 1.335,-1.919 2.246,-2.691c0.201,-1.635 1.159,-3.102 2.597,-4.049c0.015,-2.134 0.94,-4.138 2.61,-5.645c1.671,-1.51 3.891,-2.341 6.247,-2.341c1.386,-0 2.719,0.283 3.927,0.828c0.979,-0.533 2.108,-0.824 3.272,-0.824c1.629,0 3.161,0.566 4.315,1.532c0.755,-0.281 1.572,-0.429 2.416,-0.429c0.106,0 0.213,0.003 0.319,0.008c1.36,-0.733 2.9,-1.116 4.504,-1.116c3.652,0 6.875,2.035 8.208,5.012c2.74,0.646 4.769,2.913 4.769,5.602c-0,0.345 -0.034,0.688 -0.101,1.024c0.866,0.648 1.528,1.494 1.918,2.451c3.102,0.385 5.5,2.809 5.5,5.733c-0,1.507 -0.642,2.919 -1.737,3.972c0.473,0.999 0.724,2.083 0.724,3.181c0,1.841 -0.704,3.642 -1.982,5.067c-0.993,1.11 -2.3,1.959 -3.762,2.458c-0.432,0.729 -1.034,1.374 -1.763,1.877c-1.114,0.768 -2.443,1.174 -3.844,1.174c-0.792,0 -1.562,-0.13 -2.283,-0.381c-0.95,0.493 -2.028,0.756 -3.153,0.756c-1.102,0 -2.162,-0.257 -3.093,-0.728c-0.026,0.02 -0.052,0.038 -0.079,0.056c-0.121,0.085 -0.247,0.164 -0.374,0.236l-0,3.645l2.246,-0c0.621,-0 1.124,0.463 1.124,1.035c0,0.569 -0.503,1.032 -1.124,1.032l-15.727,0c-0.622,0 -1.126,-0.463 -1.126,-1.032c0,-0.572 0.504,-1.035 1.126,-1.035l2.245,-0l-0,-2.606c-0.616,-0.203 -1.198,-0.491 -1.735,-0.86c-0.354,-0.245 -0.678,-0.522 -0.969,-0.826c-1.18,0.463 -2.46,0.708 -3.76,0.708c-4.306,0 -8.007,-2.635 -9.111,-6.302c-0.752,-0.381 -1.422,-0.9 -1.95,-1.522c-0.868,-1.022 -1.327,-2.243 -1.327,-3.535c0,-0.243 0.015,-0.482 0.048,-0.718c-0.644,-0.688 -1.175,-1.453 -1.59,-2.285c-0.632,-1.266 -0.951,-2.617 -0.951,-4.015Zm30.334,21.961l-0,-2.927c-0.191,0.018 -0.385,0.028 -0.58,0.028c-0.575,0 -1.137,-0.084 -1.668,-0.245l0,3.144l2.248,-0Zm-4.493,-0l-0,-2.629c-0.718,0.242 -1.478,0.369 -2.248,0.372l-0,2.257l2.248,-0Z" style="fill:#005b4c;fill-rule:nonzero;"/></g><g><rect x="212.76" y="247.131" width="12.599" height="17.239" style="fill:#002e42;"/><rect x="227.928" y="247.131" width="12.599" height="17.239" style="fill:#002e42;"/></g><g><path d="M470.79,234.924l-11.727,0.295l0.237,9.409l11.726,-0.294l-0.236,-9.41Z" style="fill:#002e42;"/><path d="M484.906,234.57l-11.726,0.294l0.236,9.41l11.727,-0.295l-0.237,-9.409Z" style="fill:#002e42;"/></g><g><rect x="282.74" y="247.131" width="12.599" height="17.239" style="fill:#002e42;"/><rect x="297.908" y="247.131" width="12.599" height="17.239" style="fill:#002e42;"/></g><g><path d="M548.901,233.135l-11.726,0.294l0.236,9.409l11.727,-0.294l-0.237,-9.409Z" style="fill:#002e42;"/><path d="M563.018,232.78l-11.726,0.295l0.236,9.409l11.726,-0.294l-0.236,-9.41Z" style="fill:#002e42;"/></g><g><path d="M627.013,231.511l-11.726,0.294l0.236,9.41l11.726,-0.295l-0.236,-9.409Z" style="fill:#002e42;"/><path d="M641.13,231.156l-11.726,0.295l0.236,9.409l11.726,-0.294l-0.236,-9.41Z" style="fill:#002e42;"/></g><g><path d="M635.811,100.391l-7.925,0.666l0,10.843l7.925,-0.856l0,-10.653Z" style="fill:#002e42;"/><path d="M645.352,99.297l-7.925,0.666l-0,10.843l7.925,-0.856l-0,-10.653Z" style="fill:#002e42;"/></g><g><path d="M578.968,103.205l-7.925,0.666l0,10.843l7.925,-0.856l0,-10.653Z" style="fill:#002e42;"/><path d="M588.509,102.111l-7.925,0.666l-0,10.843l7.925,-0.856l-0,-10.653Z" style="fill:#002e42;"/></g><g><rect x="142.78" y="247.131" width="12.599" height="17.239" style="fill:#002e42;"/><rect x="157.947" y="247.131" width="12.599" height="17.239" style="fill:#002e42;"/></g><g><path d="M392.678,236.714l-11.726,0.295l0.236,9.409l11.726,-0.294l-0.236,-9.41Z" style="fill:#002e42;"/><path d="M406.795,236.36l-11.726,0.294l0.236,9.41l11.726,-0.295l-0.236,-9.409Z" style="fill:#002e42;"/></g><path d="M703.04,35.766l0,-7.583l-23.287,4.031l0,7.613l23.287,-4.061Z" style="fill:#002e42;"/><path d="M703.04,50.639l0,-7.584l-23.287,4.031l0,7.613l23.287,-4.06Z" style="fill:#002e42;"/><path d="M703.04,65.511l0,-7.583l-23.287,4.031l0,7.612l23.287,-4.06Z" style="fill:#002e42;"/><path d="M614.126,20.244l24.346,-3.695l28.579,2.648l11.784,-2.648l24.205,1.324l-35.989,7.944l-52.925,-5.573Z" style="fill:#002e42;"/></g></svg>