<?xml version="1.0" encoding="UTF-8" standalone="no"?><!DOCTYPE svg PUBLIC "-//W3C//DTD SVG 1.1//EN" "http://www.w3.org/Graphics/SVG/1.1/DTD/svg11.dtd"><svg width="100%" height="100%" viewBox="0 0 885 288" version="1.1" xmlns="http://www.w3.org/2000/svg" xmlns:xlink="http://www.w3.org/1999/xlink" xml:space="preserve" xmlns:serif="http://www.serif.com/" style="fill-rule:evenodd;clip-rule:evenodd;stroke-linejoin:round;stroke-miterlimit:2;"><g><g><path d="M261.335,165.372l-4.513,0.214l-0,4.299l4.513,-0l0,-4.513Z" style="fill:#454545;"/><path d="M221.828,167.945l-4.513,0.215l-0,4.299l4.513,-0l0,-4.514Z" style="fill:#454545;"/><path d="M553.472,84.849l-179.184,-1.963l-4.957,-7.966l-50.436,-11.595l33.286,-30.83l218.031,0l-14.032,37.912l-2.708,14.442Z" style="fill:#005b4c;"/><path d="M75.97,93.876l40.619,39.716l0,105.61l-40.619,-68.257l0,-77.069Z" style="fill:#6d6d6d;"/><path d="M695.338,32.687l-30.84,52.162l-111.026,-9.929l16.74,-42.425l4.586,-0.02l29.222,-10.811l91.318,11.023Z" style="fill:#005b4c;"/><path d="M695.188,32.495l-30.69,52.354l-0,44.23l61.681,-22.205l-1.204,-36.467l-29.787,-37.912Z" style="fill:#9f9f9f;"/><path d="M553.472,74.92l111.026,9.929l-0,44.23l-73.115,9.749l-37.911,-5.236l-0,-58.672Z" style="fill:#e7e7e7;"/><path d="M369.331,74.92l-78.53,-18.053l-122.761,-0l0,18.053l201.291,-0Z" style="fill:#003c32;"/><path d="M726.179,106.874l-61.681,22.205l159.769,29.787l60.478,-29.787l-158.566,-22.205Z" style="fill:#003c32;"/><path d="M394.487,129.079c0,-0 -0.148,43.905 0.119,50.548l105.61,0l164.282,-50.548l-270.011,-0Z" style="fill:#002e42;"/><path d="M664.498,129.079l-142.619,22.745l0,11.556l-21.663,4.513l-0,25.274l164.282,-25.274l-0,-38.814Z" style="fill:#e7e7e7;"/><path d="M664.498,129.079l-0,38.814l159.769,27.624l-0,-38.456l-159.769,-27.982Z" style="fill:#e7e7e7;"/><path d="M824.267,195.517l-0,-38.456l60.478,-27.982l-0,92.07l-114.665,18.053l0,-34.3l54.187,-9.385Z" style="fill:#9f9f9f;"/><path d="M500.216,193.167l73.103,30.068l106.524,-18.333l90.237,-0l54.187,-9.385l-159.769,-27.624l-164.282,25.274Z" style="fill:#002e42;"/><path d="M394.606,175.114l-0,47.841l105.61,0.391l-0,-48.232l-105.61,0Z" style="fill:#e7e7e7;"/><path d="M500.216,187.791l-0,35.555l73.103,35.333l0,-35.333l-73.103,-35.555Z" style="fill:#7b7979;"/><rect x="679.843" y="204.902" width="90.237" height="34.301" style="fill:#e7e7e7;"/><path d="M116.589,133.952l227.468,-0.36l0,105.61l-227.468,0l0,-105.25Z" style="fill:#e7e7e7;"/><path d="M553.472,74.92l-0,54.159l-159.026,-0l-11.575,-13.54l-13.54,-40.619l184.141,-0Z" style="fill:#e7e7e7;"/><path d="M143.719,74.92l225.612,-0l-25.274,59.032l-227.468,-0.36l27.13,-58.672Z" style="fill:#005b4c;"/><path d="M394.606,222.955l-0,-93.717l-25.275,-54.318l-25.274,58.852l0,105.43l50.549,-16.247Z" style="fill:#9f9f9f;"/><path d="M143.669,31.593l-0,43.327l24.371,-0l0,-51.451l-24.371,8.124Z" style="fill:#e7e7e7;"/><path d="M573.319,223.235l0,35.444l106.524,-19.477l-0,-34.3l-106.524,18.333Z" style="fill:#9f9f9f;"/><g><g><rect x="282.677" y="155.075" width="8.124" height="22.747" style="fill:#002e42;"/><rect x="292.457" y="155.075" width="8.124" height="22.747" style="fill:#002e42;"/><path d="M641.783,99.292l-8.124,-1.806l-0,20.942l8.124,-0l-0,-19.136Z" style="fill:#002e42;"/><path d="M589.834,99.292l-8.124,-1.806l-0,20.942l8.124,-0l-0,-19.136Z" style="fill:#002e42;"/><path d="M642.834,99.292l8.124,-1.806l0,20.942l-8.124,-0l0,-19.136Z" style="fill:#002e42;"/><path d="M590.886,99.292l8.124,-1.806l-0,20.942l-8.124,-0l-0,-19.136Z" style="fill:#002e42;"/><rect x="408.145" y="93.876" width="8.124" height="35.203" style="fill:#002e42;"/><rect x="439.061" y="93.876" width="8.124" height="35.203" style="fill:#002e42;"/><rect x="469.977" y="93.876" width="8.124" height="35.203" style="fill:#002e42;"/><rect x="500.893" y="93.876" width="8.124" height="35.203" style="fill:#002e42;"/><rect x="531.808" y="93.876" width="8.124" height="35.203" style="fill:#002e42;"/><rect x="220.836" y="155.075" width="8.124" height="22.747" style="fill:#002e42;"/><rect x="230.616" y="155.075" width="8.124" height="22.747" style="fill:#002e42;"/><rect x="158.995" y="155.075" width="8.124" height="22.747" style="fill:#002e42;"/><rect x="168.775" y="155.075" width="8.124" height="22.747" style="fill:#002e42;"/></g></g><path d="M677.798,170.193l0,-25.769l126.611,21.664l-0,25.709l-126.611,-21.604Z" style="fill:#005b4c;"/><path d="M570.212,32.495l-16.74,42.425l-0,54.159l6.319,-0l-0,-54.159l15.007,-42.445l-4.586,0.02Z" style="fill:#002e42;"/><path d="M168.04,23.469l0,51.451l-24.564,-0l-41.329,-16.248l-0,-37.008l5.416,6.318l26.177,-1.579l15.345,0.677l18.955,-3.611Z" style="fill:#002e42;"/><path d="M75.97,93.876l26.177,-35.204l41.329,16.248l-26.887,58.672l-40.619,-39.716Z" style="fill:#003c32;"/><path d="M159.917,15.345l8.123,2.595l0,5.824l-24.371,7.829l-36.106,-3.611l-7.221,-4.218l-0,-5.824l7.221,-2.595l26.177,7.221l26.177,-7.221Z" style="fill:#003c32;"/><path d="M143.669,23.764l-36.106,-3.906l-0,-18.005l36.106,2.603l-0,19.308Z" style="fill:#002e42;"/><path d="M143.669,4.426l16.248,-2.573l-0,18.005l-16.248,3.906l-0,-19.338Z" style="fill:#e7e7e7;"/><path d="M107.563,1.853l21.663,-1.853l30.691,1.853l-16.248,2.603l-36.106,-2.603Z" style="fill:#002e42;"/><path d="M143.669,31.593l-0,43.327l24.371,-0l0,-51.451l-24.371,8.124Z" style="fill:#e7e7e7;"/><path d="M612.337,182.01l-0,6.541c-0,0.487 -0.491,0.882 -1.095,0.882c-0.605,-0 -1.095,-0.395 -1.095,-0.882l-0,-6.541l-3.419,-0l1.806,-6.542l-0,-17.715c-0,-1.102 0.989,-2.042 2.338,-2.223l0.147,-0.02c0.73,-0.097 1.476,0.068 2.041,0.453c0.564,0.385 0.89,0.951 0.89,1.546l-0,17.959l1.805,6.542l-3.418,-0Z" style="fill:#7c7c7c;"/><path d="M575.053,201.295l0,8.124c0,0.604 -0.49,1.095 -1.095,1.095c-0.604,0 -1.095,-0.491 -1.095,-1.095l0,-8.124l-3.418,0l1.806,-8.124l-0,-22.001c-0,-1.368 0.988,-2.535 2.338,-2.76l0.147,-0.024c0.73,-0.122 1.476,0.083 2.04,0.562c0.565,0.478 0.89,1.18 0.89,1.92l0,22.303l1.806,8.124l-3.419,0Z" style="fill:#7c7c7c;"/><path d="M644.832,194.067l0,8.124c0,0.604 -0.491,1.095 -1.095,1.095c-0.604,-0 -1.095,-0.491 -1.095,-1.095l-0,-8.124l-3.418,-0l1.805,-8.124l0,-22.001c0,-1.368 0.989,-2.535 2.338,-2.76l0.148,-0.025c0.729,-0.121 1.476,0.084 2.04,0.562c0.564,0.479 0.89,1.181 0.89,1.921l-0,22.303l1.805,8.124l-3.418,-0Z" style="fill:#7c7c7c;"/></g><path d="M884.745,206.393c-0,-3.814 -0.928,-7.612 -2.681,-10.986c-1.29,-2.479 -3.032,-4.743 -5.103,-6.65c-0.456,-4.038 -2.632,-7.662 -5.9,-10.001c-0.034,-5.273 -2.135,-10.223 -5.93,-13.947c-3.794,-3.73 -8.838,-5.784 -14.192,-5.784c-3.148,0 -6.176,0.699 -8.92,2.047c-2.225,-1.318 -4.79,-2.036 -7.433,-2.036c-3.702,0 -7.182,1.399 -9.803,3.786c-1.716,-0.696 -3.573,-1.06 -5.489,-1.06c-0.241,-0 -0.484,0.005 -0.725,0.018c-3.09,-1.809 -6.587,-2.755 -10.233,-2.755c-8.296,-0 -15.618,5.027 -18.647,12.381c-6.223,1.596 -10.833,7.195 -10.833,13.838c0,0.853 0.077,1.7 0.228,2.53c-1.966,1.602 -3.471,3.692 -4.355,6.056c-7.047,0.95 -12.495,6.94 -12.495,14.163c0,3.722 1.458,7.21 3.946,9.812c-1.076,2.468 -1.647,5.145 -1.647,7.859c0,4.546 1.601,8.996 4.504,12.518c2.256,2.74 5.226,4.838 8.546,6.071c0.982,1.802 2.35,3.395 4.006,4.636c2.53,1.9 5.55,2.902 8.732,2.902c1.8,-0 3.548,-0.322 5.188,-0.943c2.157,1.219 4.606,1.87 7.163,1.87c2.503,-0 4.911,-0.636 7.025,-1.799c0.06,0.049 0.12,0.094 0.18,0.139c0.276,0.209 0.56,0.403 0.85,0.583l0,9.003l-5.103,-0c-1.41,-0 -2.554,1.144 -2.554,2.557c0,1.406 1.144,2.55 2.554,2.55l35.729,-0c1.413,-0 2.557,-1.144 2.557,-2.55c0,-1.413 -1.144,-2.557 -2.557,-2.557l-5.1,-0l0,-6.438c1.398,-0.501 2.722,-1.212 3.941,-2.124c0.804,-0.605 1.54,-1.29 2.202,-2.041c2.681,1.144 5.589,1.75 8.543,1.75c9.78,-0 18.189,-6.509 20.697,-15.568c1.709,-0.943 3.231,-2.225 4.431,-3.762c1.97,-2.523 3.013,-5.54 3.013,-8.733c0,-0.598 -0.033,-1.189 -0.108,-1.772c1.462,-1.701 2.669,-3.59 3.612,-5.646c1.435,-3.128 2.161,-6.464 2.161,-9.917Zm-68.913,54.251l0,-7.231c0.434,0.045 0.873,0.071 1.316,0.071c1.307,-0 2.584,-0.209 3.79,-0.606l-0,7.766l-5.106,-0Zm10.207,-0l0,-6.495c1.63,0.599 3.357,0.913 5.107,0.92l0,5.575l-5.107,-0Z" style="fill:#002e42;fill-rule:nonzero;"/><g><path d="M159.381,204.009c-0,-3.017 -0.734,-6.021 -2.121,-8.69c-1.02,-1.961 -2.399,-3.752 -4.037,-5.26c-0.361,-3.194 -2.082,-6.062 -4.667,-7.912c-0.027,-4.171 -1.689,-8.087 -4.69,-11.033c-3.002,-2.95 -6.992,-4.575 -11.227,-4.575c-2.49,0 -4.886,0.553 -7.057,1.619c-1.759,-1.042 -3.788,-1.61 -5.879,-1.61c-2.928,0 -5.682,1.106 -7.755,2.994c-1.357,-0.55 -2.826,-0.838 -4.342,-0.838c-0.19,-0 -0.383,0.004 -0.573,0.015c-2.445,-1.432 -5.211,-2.18 -8.095,-2.18c-6.563,-0 -12.355,3.976 -14.751,9.794c-4.922,1.263 -8.569,5.691 -8.569,10.947c0,0.674 0.061,1.344 0.18,2.001c-1.555,1.267 -2.746,2.92 -3.445,4.791c-5.575,0.751 -9.884,5.489 -9.884,11.203c0,2.944 1.154,5.704 3.122,7.762c-0.852,1.952 -1.303,4.07 -1.303,6.217c-0,3.596 1.266,7.116 3.562,9.902c1.785,2.167 4.135,3.827 6.761,4.803c0.777,1.425 1.859,2.685 3.169,3.667c2.001,1.502 4.39,2.295 6.907,2.295c1.424,-0 2.807,-0.254 4.104,-0.745c1.706,0.964 3.643,1.478 5.666,1.478c1.981,0 3.885,-0.502 5.558,-1.422c0.047,0.038 0.094,0.074 0.142,0.109c0.218,0.166 0.443,0.32 0.672,0.462l0,7.121l-4.037,0c-1.115,0 -2.02,0.905 -2.02,2.023c0,1.112 0.905,2.017 2.02,2.017l28.264,0c1.118,0 2.023,-0.905 2.023,-2.017c-0,-1.118 -0.905,-2.023 -2.023,-2.023l-4.034,0l-0,-5.093c1.106,-0.396 2.153,-0.958 3.117,-1.679c0.636,-0.479 1.218,-1.021 1.742,-1.615c2.12,0.905 4.421,1.384 6.758,1.384c7.737,0 14.388,-5.149 16.372,-12.315c1.352,-0.745 2.556,-1.76 3.505,-2.975c1.559,-1.997 2.384,-4.383 2.384,-6.909c-0,-0.473 -0.027,-0.941 -0.086,-1.402c1.156,-1.345 2.112,-2.839 2.857,-4.466c1.136,-2.474 1.71,-5.114 1.71,-7.845Zm-54.513,42.915l-0,-5.72c0.343,0.036 0.69,0.056 1.041,0.056c1.034,0 2.044,-0.165 2.997,-0.479l0,6.143l-4.038,0Zm8.074,0l-0,-5.137c1.289,0.473 2.656,0.722 4.04,0.727l-0,4.41l-4.04,0Z" style="fill:#002e42;fill-rule:nonzero;"/></g><g><path d="M80.284,164.057c-0,-1.579 -0.384,-3.152 -1.11,-4.549c-0.534,-1.026 -1.256,-1.964 -2.113,-2.753c-0.189,-1.672 -1.09,-3.173 -2.443,-4.141c-0.014,-2.183 -0.884,-4.233 -2.455,-5.775c-1.571,-1.544 -3.66,-2.394 -5.876,-2.394c-1.304,-0 -2.558,0.289 -3.694,0.847c-0.921,-0.546 -1.983,-0.843 -3.077,-0.843c-1.533,0 -2.974,0.579 -4.059,1.568c-0.71,-0.288 -1.479,-0.439 -2.272,-0.439c-0.1,-0 -0.201,0.002 -0.301,0.007c-1.279,-0.749 -2.727,-1.14 -4.237,-1.14c-3.435,-0 -6.466,2.081 -7.72,5.126c-2.577,0.661 -4.485,2.979 -4.485,5.729c-0,0.353 0.031,0.704 0.094,1.048c-0.814,0.663 -1.437,1.528 -1.803,2.507c-2.918,0.394 -5.174,2.874 -5.174,5.864c0,1.541 0.604,2.986 1.634,4.063c-0.445,1.022 -0.682,2.13 -0.682,3.254c0,1.882 0.663,3.724 1.865,5.183c0.934,1.134 2.164,2.003 3.539,2.513c0.406,0.747 0.973,1.406 1.658,1.92c1.047,0.786 2.298,1.201 3.616,1.201c0.745,0 1.469,-0.133 2.147,-0.39c0.894,0.505 1.908,0.774 2.966,0.774c1.037,0 2.034,-0.263 2.909,-0.745c0.025,0.021 0.05,0.039 0.074,0.058c0.115,0.086 0.233,0.167 0.352,0.241l0,3.728l-2.112,-0c-0.584,-0 -1.058,0.473 -1.058,1.059c0,0.582 0.474,1.055 1.058,1.055l14.793,0c0.585,0 1.059,-0.473 1.059,-1.055c-0,-0.585 -0.474,-1.059 -1.059,-1.059l-2.112,-0l0,-2.666c0.579,-0.207 1.127,-0.501 1.632,-0.879c0.333,-0.251 0.638,-0.534 0.912,-0.845c1.109,0.473 2.314,0.724 3.537,0.724c4.049,0 7.531,-2.695 8.569,-6.446c0.708,-0.39 1.338,-0.921 1.835,-1.557c0.815,-1.045 1.247,-2.294 1.247,-3.616c0,-0.248 -0.014,-0.492 -0.045,-0.734c0.606,-0.704 1.106,-1.486 1.496,-2.337c0.594,-1.295 0.895,-2.677 0.895,-4.106Zm-28.533,22.462l0,-2.994c0.18,0.018 0.362,0.029 0.545,0.029c0.541,0 1.07,-0.086 1.569,-0.25l0,3.215l-2.114,-0Zm4.226,-0l0,-2.689c0.675,0.247 1.39,0.378 2.115,0.381l-0,2.308l-2.115,-0Z" style="fill:#002e42;fill-rule:nonzero;"/></g><g><path d="M778.4,262.648c0,-1.579 -0.384,-3.151 -1.11,-4.548c-0.534,-1.027 -1.255,-1.964 -2.113,-2.753c-0.189,-1.672 -1.09,-3.173 -2.442,-4.141c-0.014,-2.184 -0.884,-4.233 -2.456,-5.775c-1.571,-1.544 -3.659,-2.395 -5.876,-2.395c-1.303,0 -2.557,0.29 -3.693,0.848c-0.921,-0.546 -1.983,-0.843 -3.078,-0.843c-1.532,0 -2.973,0.579 -4.058,1.567c-0.711,-0.288 -1.479,-0.439 -2.273,-0.439c-0.1,0 -0.2,0.003 -0.3,0.008c-1.28,-0.749 -2.728,-1.141 -4.237,-1.141c-3.435,0 -6.467,2.082 -7.721,5.126c-2.576,0.661 -4.485,2.979 -4.485,5.73c0,0.353 0.032,0.704 0.095,1.047c-0.815,0.664 -1.438,1.529 -1.804,2.508c-2.918,0.393 -5.173,2.873 -5.173,5.864c0,1.541 0.604,2.985 1.634,4.063c-0.446,1.021 -0.682,2.13 -0.682,3.254c-0,1.882 0.663,3.724 1.865,5.182c0.934,1.135 2.164,2.003 3.538,2.514c0.407,0.746 0.973,1.406 1.659,1.92c1.047,0.786 2.298,1.201 3.615,1.201c0.745,-0 1.469,-0.133 2.148,-0.39c0.893,0.504 1.907,0.774 2.966,0.774c1.036,-0 2.033,-0.263 2.909,-0.745c0.024,0.02 0.049,0.039 0.074,0.057c0.114,0.087 0.232,0.168 0.352,0.242l0,3.728l-2.113,-0c-0.584,-0 -1.057,0.473 -1.057,1.058c-0,0.582 0.473,1.056 1.057,1.056l14.793,0c0.585,0 1.059,-0.474 1.059,-1.056c0,-0.585 -0.474,-1.058 -1.059,-1.058l-2.111,-0l-0,-2.666c0.579,-0.208 1.127,-0.502 1.631,-0.879c0.333,-0.251 0.638,-0.534 0.912,-0.845c1.11,0.473 2.314,0.724 3.537,0.724c4.05,0 7.531,-2.695 8.57,-6.446c0.707,-0.39 1.337,-0.921 1.834,-1.557c0.816,-1.045 1.248,-2.294 1.248,-3.616c-0,-0.248 -0.014,-0.492 -0.045,-0.734c0.605,-0.704 1.105,-1.486 1.495,-2.337c0.595,-1.295 0.895,-2.677 0.895,-4.107Zm-28.532,22.462l-0,-2.993c0.179,0.018 0.361,0.029 0.545,0.029c0.541,0 1.069,-0.087 1.569,-0.251l-0,3.215l-2.114,0Zm4.226,0l-0,-2.688c0.675,0.247 1.39,0.377 2.114,0.38l0,2.308l-2.114,0Z" style="fill:#002e42;fill-rule:nonzero;"/></g><g><path d="M80.284,235.794c-0,-2.499 -0.608,-4.988 -1.757,-7.199c-0.845,-1.625 -1.987,-3.108 -3.344,-4.358c-0.299,-2.646 -1.725,-5.021 -3.867,-6.554c-0.022,-3.455 -1.399,-6.699 -3.885,-9.14c-2.487,-2.444 -5.792,-3.79 -9.301,-3.79c-2.063,0 -4.047,0.458 -5.846,1.342c-1.457,-0.864 -3.138,-1.335 -4.87,-1.335c-2.426,0 -4.707,0.917 -6.425,2.481c-1.124,-0.456 -2.341,-0.695 -3.596,-0.695c-0.158,0 -0.318,0.004 -0.476,0.013c-2.025,-1.186 -4.317,-1.806 -6.705,-1.806c-5.437,-0 -10.236,3.294 -12.22,8.113c-4.078,1.046 -7.099,4.715 -7.099,9.069c-0,0.559 0.05,1.114 0.149,1.658c-1.288,1.049 -2.275,2.419 -2.854,3.969c-4.618,0.622 -8.188,4.547 -8.188,9.281c-0,2.439 0.956,4.725 2.586,6.43c-0.706,1.617 -1.079,3.371 -1.079,5.15c-0,2.979 1.048,5.895 2.951,8.203c1.478,1.796 3.425,3.17 5.601,3.979c0.643,1.181 1.539,2.225 2.625,3.038c1.657,1.245 3.637,1.901 5.722,1.901c1.18,0 2.325,-0.211 3.399,-0.617c1.414,0.798 3.019,1.225 4.695,1.225c1.64,-0 3.218,-0.417 4.603,-1.179c0.04,0.032 0.079,0.062 0.118,0.091c0.181,0.137 0.368,0.265 0.557,0.382l0,5.9l-3.344,-0c-0.924,-0 -1.673,0.75 -1.673,1.676c-0,0.921 0.749,1.671 1.673,1.671l23.414,-0c0.926,-0 1.676,-0.75 1.676,-1.671c0,-0.926 -0.75,-1.676 -1.676,-1.676l-3.342,-0l0,-4.219c0.917,-0.328 1.784,-0.794 2.583,-1.392c0.526,-0.397 1.009,-0.845 1.443,-1.337c1.756,0.749 3.662,1.146 5.598,1.146c6.409,0 11.92,-4.265 13.564,-10.202c1.119,-0.617 2.116,-1.458 2.903,-2.465c1.291,-1.653 1.975,-3.631 1.975,-5.723c-0,-0.392 -0.022,-0.779 -0.071,-1.161c0.958,-1.115 1.749,-2.352 2.366,-3.7c0.941,-2.05 1.417,-4.236 1.417,-6.499Zm-45.16,35.552l0,-4.739c0.284,0.03 0.572,0.047 0.862,0.047c0.857,-0 1.693,-0.137 2.484,-0.397l-0,5.089l-3.346,-0Zm6.689,-0l-0,-4.256c1.068,0.392 2.2,0.598 3.346,0.603l0,3.653l-3.346,-0Z" style="fill:#001924;fill-rule:nonzero;"/></g></g></svg>